<svg
  xmlns="http://www.w3.org/2000/svg"
  viewBox="0 0 1433.7 805.6"
  class="nav-logo"
  aria-label="Company Logo"
>
  <style>
    .st4 { fill: #000000; }
  </style>

  <g id="Desktop">
	<g id="Icons-Copy-4" transform="translate(-352.000000, -2230.000000)">
		<g id="Group-68" transform="translate(352.000000, 2230.000000)">
			<g id="Group_1_" transform="translate(106.000000, 111.000000)">
				<rect id="Rectangle-path" x="57.6" y="473.9" class="st4" width="215.8" height="28"/>
				<rect id="Rectangle-path_1_" x="57.6" y="415" class="st4" width="215.8" height="28"/>
				<rect id="Rectangle-path_2_" x="119.2" y="356.2" class="st4" width="92.5" height="28"/>
				<rect id="Rectangle-path_3_" x="119.2" y="297.3" class="st4" width="92.5" height="28"/>
				<rect id="Rectangle-path_4_" x="119.2" y="238.5" class="st4" width="92.5" height="28"/>
				<rect id="Rectangle-path_5_" x="119.2" y="179.7" class="st4" width="92.5" height="28"/>
				<rect id="Rectangle-path_6_" x="57.6" y="120.8" class="st4" width="215.8" height="28"/>
				<rect id="Rectangle-path_7_" x="57.6" y="62" class="st4" width="215.8" height="28"/>
				<path id="Shape_17_" class="st4" d="M304.2,473.9v28h227c29.1,0,55.8-10.6,76.2-28H304.2z"/>
				<path id="Shape_18_" class="st4" d="M304.2,415v28h329c5-8.7,9-18.2,11.8-28H304.2z"/>
				<polygon id="Shape_19_" class="st4" points="365.8,356.2 365.8,384.2 365.8,384.2 458.3,384.2 458.3,356.2     "/>
				<path id="Shape_20_" class="st4" d="M610.4,297.3H365.8v28h267.3C626.9,314.7,619.4,305.2,610.4,297.3z"/>
				<path id="Shape_21_" class="st4" d="M365.8,238.5v28h244.6c9-8.1,16.5-17.7,22.7-28H365.8z"/>
				<path id="Shape_22_" class="st4" d="M644.6,148.8c-2.8-9.8-6.7-19.3-11.8-28H304.2v28H644.6z"/>
				<path id="Shape_23_" class="st4" d="M607.3,90c-20.5-17.4-47.1-28-76.2-28h-227v28H607.3z"/>
				<polygon id="Shape_24_" class="st4" points="365.8,179.7 365.8,207.7 365.8,207.7 458.3,207.7 458.3,179.7     "/>
				<path id="Shape_25_" class="st4" d="M550.7,207.7h94.7c2.2-9,3.4-18.5,3.4-28h-98.1V207.7z"/>
				<path id="Shape_26_" class="st4" d="M550.7,356.2v28h98.1c0-9.5-1.1-19.1-3.4-28H550.7z"/>
				<rect id="Rectangle-path_8_" x="674" y="473.6" class="st4" width="154.1" height="28"/>
				<rect id="Rectangle-path_9_" x="674" y="414.7" class="st4" width="154.1" height="28"/>
				<rect id="Rectangle-path_10_" x="735.7" y="355.9" class="st4" width="92.5" height="28"/>
				<rect id="Rectangle-path_11_" x="735.7" y="297.1" class="st4" width="92.5" height="28"/>
				<rect id="Rectangle-path_12_" x="735.7" y="238.2" class="st4" width="92.5" height="28"/>
				<rect id="Rectangle-path_13_" x="1013.1" y="473.6" class="st4" width="154.1" height="28"/>
				<rect id="Rectangle-path_14_" x="1013.1" y="414.7" class="st4" width="154.1" height="28"/>
				<rect id="Rectangle-path_15_" x="1013.1" y="355.9" class="st4" width="92.5" height="28"/>
				<rect id="Rectangle-path_16_" x="1013.1" y="297.1" class="st4" width="92.5" height="28"/>
				<polygon id="Shape_27_" class="st4" points="1013.1,266.2 1105.5,266.2 1105.5,238.2 1013.1,238.2 932.1,238.2 922.5,266.2       1003.5,266.2 1013.1,239.6     "/>
				<polygon id="Shape_28_" class="st4" points="1105.5,179.4 952.5,179.4 943,207.4 1105.5,207.4     "/>
				<polygon id="Shape_29_" class="st4" points="993.4,61.7 983.6,89.7 1167.2,89.7 1167.2,61.7     "/>
				<polygon id="Shape_30_" class="st4" points="920.6,501.3 930.4,473.6 910.8,473.6     "/>
				<polygon id="Shape_31_" class="st4" points="899.9,442.8 941.3,442.8 951.1,414.7 890,414.7     "/>
				<polygon id="Shape_32_" class="st4" points="879.1,383.9 962.1,383.9 971.9,355.9 869.3,355.9     "/>
				<polygon id="Shape_33_" class="st4" points="858.4,325.1 982.8,325.1 992.9,297.1 848.3,297.1     "/>
				<polygon id="Shape_34_" class="st4" points="909.1,238.2 828.1,238.2 828.1,239.6 837.6,266.2 918.6,266.2     "/>
				<polygon id="Shape_35_" class="st4" points="735.7,207.4 898.2,207.4 888.6,179.4 735.7,179.4     "/>
				<polygon id="Shape_36_" class="st4" points="963.2,148.6 1167.2,148.6 1167.2,120.5 973,120.5     "/>
				<polygon id="Shape_37_" class="st4" points="868.2,120.5 674,120.5 674,148.6 878,148.6     "/>
				<polygon id="Shape_38_" class="st4" points="847.7,61.7 674,61.7 674,89.7 857.5,89.7     "/>
			</g>
		</g>
	</g>
</g>
</svg>